<?xml version="1.0" encoding="iso-8859-1"?>
<!-- Generator: Adobe Illustrator 19.0.0, SVG Export Plug-In . SVG Version: 6.00 Build 0)  -->
<svg version="1.1" id="Layer_1" xmlns="http://www.w3.org/2000/svg" xmlns:xlink="http://www.w3.org/1999/xlink" x="0px" y="0px"
	 viewBox="0 0 512 512" style="enable-background:new 0 0 512 512;" xml:space="preserve">
<path style="fill:#6B7F9E;" d="M256,512c141.03,0,256-114.97,256-256S397.03,0,256,0S0,114.97,0,256S114.97,512,256,512z"/>
<g>
	<path style="fill:#FFFFFF;" d="M241.354,170.804v5.432h-5.432v-5.432H241.354z M302.483,296.294l2.613-2.957l-4.057-3.644
		l-2.613,2.957L302.483,296.294z M308.74,289.281l-4.057-3.644l3.644-4.126l4.126,3.644l-3.644,4.057L308.74,289.281z
		 M315.96,281.098l-4.057-3.644l3.644-4.057l4.126,3.644l-3.644,4.057H315.96z M323.18,272.915l-4.057-3.644l3.644-4.057
		l4.057,3.644l-3.644,4.126V272.915z M330.4,264.733l-4.126-3.644l3.644-4.057l4.057,3.644l-3.644,4.057H330.4z M337.62,256.55
		l-4.126-3.644l3.644-4.057l4.057,3.644l-3.644,4.057H337.62z M344.84,248.367l-4.057-3.644l3.644-4.126l4.057,3.644l-3.644,4.057
		V248.367z M352.06,240.185l-4.057-3.644l3.644-4.057l4.126,3.644l-3.644,4.057H352.06z M359.28,232.002l-4.057-3.644l3.644-4.126
		l4.126,3.644l-3.644,4.057L359.28,232.002z M366.5,223.82l-4.057-3.644l3.644-4.057l4.057,3.644L366.5,223.82z M373.72,215.637
		l-4.126-3.644l3.644-4.057l4.057,3.644l-3.644,4.057H373.72z M380.94,207.454l-4.126-3.644l3.644-4.057l4.057,3.644l-3.644,4.057
		H380.94z M388.16,199.272l-4.057-3.644l3.644-4.057l4.057,3.644L388.16,199.272z M395.38,191.089l-4.057-3.644l3.644-4.057
		l4.126,3.644l-3.644,4.057H395.38z M402.6,182.906l-4.126-3.644l2.132-2.407h-1.1v-5.432h5.432v5.432h-0.963l2.132,1.925
		l-3.644,4.057L402.6,182.906z M394.074,171.423v5.432h-5.432v-5.432H394.074z M383.14,171.354v5.432h-5.432v-5.432H383.14z
		 M372.207,171.286v5.432h-5.432v-5.432H372.207z M361.274,171.217v5.432h-5.432v-5.432H361.274z M350.341,171.148v5.432h-5.432
		v-5.432H350.341z M339.408,171.079v5.432h-5.432v-5.432H339.408z M328.475,171.01v5.432h-5.432v-5.432H328.475z M317.542,170.942
		v5.432h-5.432v-5.432H317.542z M306.609,170.873v5.432h-5.432v-5.432H306.609z M295.676,170.804v5.432h-5.432v-5.432H295.676z
		 M284.742,170.735v5.432h-5.432v-5.432H284.742z M273.809,170.667v5.432h-5.432v-5.432H273.809z M262.876,170.598v5.432h-5.432
		v-5.432H262.876z M251.943,170.529v5.432h-5.432v-5.432H251.943z"/>
	<path style="fill:#FFFFFF;" d="M440.075,236.953l36.788,148.457c-4.538,7.77-9.489,15.265-14.853,22.485l-3.301-13.202
		c-2.544,1.1-5.088,2.269-7.633,3.369c-4.813,2.132-9.833,4.194-14.921,6.326c5.57,2.132,11.208,4.263,16.984,6.326
		c1.788,0.619,3.576,1.306,5.295,1.925c-1.031,1.306-2.063,2.682-3.163,3.988l-3.782-1.375c-7.495-2.75-14.784-5.432-21.866-8.251
		c-6.945,2.75-14.165,5.432-21.591,8.183c-4.332,1.582-8.802,3.232-13.477,4.882l-0.688,2.75c4.194,1.582,8.458,3.232,12.927,4.882
		c7.564,2.75,15.196,5.57,22.966,8.183c4.194-1.444,8.389-2.888,12.446-4.401c-3.301,3.507-6.67,6.945-10.177,10.246l-2.269-0.756
		c-8.045,2.75-16.503,5.57-25.304,8.32c-6.189,1.994-12.377,3.919-18.703,5.914l-0.206,0.756c5.776,1.925,11.689,3.851,17.741,5.776
		l3.438,1.1c-1.582,1.169-3.232,2.338-4.882,3.507c-5.845-1.925-11.689-3.782-17.397-5.707l-4.882,19.597
		c-7.495,4.194-15.265,7.976-23.241,11.346l63.123-254.556l4.882-53.978h10.589l4.882,53.978L440.075,236.953z M457.609,389.948
		l-1.375-5.432c-2.75-1.169-5.501-2.269-8.251-3.438c-6.189-2.613-12.24-5.295-18.084-8.045c-5.914,2.75-12.033,5.501-18.291,8.183
		c-2.613,1.1-5.363,2.269-8.183,3.438l-1.375,5.501c2.75,1.238,5.57,2.475,8.32,3.644c6.12,2.682,12.515,5.363,19.253,7.976
		c6.67-2.682,13.202-5.363,19.528-8.114c2.819-1.238,5.638-2.475,8.389-3.713H457.609z M454.79,378.671l-3.988-16.159l-2.888,1.513
		c-4.057,2.132-8.183,4.194-12.377,6.257c4.607,2.132,9.42,4.194,14.371,6.326L454.79,378.671z M449.564,357.699l-2.269-9.214
		l-2.819-1.444c-5.157-2.682-10.177-5.295-14.784-7.908c-4.745,2.682-9.558,5.295-14.577,7.908l-2.75,1.375l-2.338,9.352
		l3.851,1.994c5.157,2.682,10.452,5.363,15.953,7.976c5.501-2.613,10.796-5.295,15.815-7.908c1.306-0.688,2.613-1.375,3.919-2.063
		V357.699z M445.714,342.296l-2.819-11.277c-2.75,1.788-5.57,3.576-8.458,5.295c3.644,2.063,7.426,4.057,11.208,5.982H445.714z
		 M441.657,326.068l-3.782-15.196c-2.819-1.857-5.501-3.713-8.045-5.57c-2.682,1.925-5.432,3.851-8.251,5.776l-3.782,15.196
		c3.713,2.407,7.633,4.882,11.827,7.289C433.818,331.088,437.806,328.612,441.657,326.068z M436.156,303.858l-0.688-2.888
		l-1.582,1.238l2.338,1.65H436.156z M434.162,295.813l-4.401-17.741l-4.401,17.603c1.444,1.169,2.888,2.407,4.47,3.576
		C431.274,298.082,432.718,296.982,434.162,295.813z M424.122,300.901l-0.756,3.163c0.825-0.619,1.719-1.169,2.544-1.788
		l-1.719-1.375H424.122z M416.627,331.225l-2.75,11.002c3.782-1.994,7.426-3.919,10.933-5.845c-2.819-1.65-5.57-3.369-8.251-5.157
		H416.627z M408.857,362.581l-4.057,16.297l4.813-2.063c4.951-2.132,9.833-4.263,14.578-6.464
		c-4.332-2.063-8.526-4.194-12.583-6.326l-2.819-1.444H408.857z M400.812,394.899l-4.813,19.528
		c3.438-1.238,6.945-2.475,10.383-3.782c5.638-2.063,11.208-4.126,16.64-6.257c-4.951-1.994-9.833-4.057-14.646-6.12
		c-2.544-1.1-5.088-2.2-7.633-3.301L400.812,394.899z M392.698,427.492l-5.501,22.21c5.363-1.65,10.658-3.369,15.884-5.02
		c6.464-2.063,12.927-4.194,19.322-6.326c-5.914-2.063-11.621-4.126-17.259-6.189C401.019,430.655,396.824,429.073,392.698,427.492z
		"/>
</g>
<path style="fill:#83CF8F;" d="M429.898,162.415c11.346,0,20.56,9.214,20.56,20.56s-9.214,20.56-20.56,20.56
	s-20.56-9.214-20.56-20.56S418.553,162.415,429.898,162.415z"/>
<path style="fill:#E4E7ED;" d="M231.177,295.882h36.306h36.375c1.169,0,2.063,0.963,2.063,2.063v139.724
	c0,1.169-0.963,2.063-2.063,2.063h-72.75c-1.169,0-2.063-0.963-2.063-2.063V297.945c0-1.169,0.963-2.063,2.063-2.063H231.177z"/>
<path style="fill:#83CF8F;" d="M234.409,315.273h66.355c0.894,0,1.582,0.688,1.582,1.582V418.69c0,0.894-0.688,1.582-1.582,1.582
	h-66.355c-0.894,0-1.582-0.688-1.582-1.582V316.854C232.827,315.96,233.515,315.273,234.409,315.273z"/>
<g>
	<path style="fill:#FFFFFF;" d="M250.086,304.752h34.931c0.825,0,1.444,0.619,1.444,1.444l0,0c0,0.825-0.619,1.444-1.444,1.444
		h-34.931c-0.825,0-1.444-0.619-1.444-1.444l0,0C248.642,305.371,249.33,304.752,250.086,304.752z"/>
	<path style="fill:#FFFFFF;" d="M267.552,424.535c3.438,0,6.189,2.75,6.189,6.189s-2.75,6.189-6.189,6.189s-6.189-2.75-6.189-6.189
		S264.114,424.535,267.552,424.535z"/>
	<path style="fill:#FFFFFF;" d="M238.672,302.552c2.132,0,3.782,1.719,3.782,3.782c0,2.132-1.719,3.782-3.782,3.782
		c-2.132,0-3.782-1.719-3.782-3.782C234.89,304.202,236.609,302.552,238.672,302.552z"/>
</g>
<path style="fill:#FF7069;" d="M239.016,388.023c0,0,3.163-9.558,3.301-17.534c-0.55-1.444-0.825-3.026-0.825-4.607v-7.358
	c0-7.495,6.12-13.615,13.615-13.615h26.267c7.495,0,13.615,6.12,13.615,13.615v7.358c0,7.495-6.051,13.615-13.615,13.615h-26.267
	c-1.1,0-2.132-0.138-3.163-0.413c-2.682,1.444-8.114,4.607-12.858,8.939H239.016z"/>
<g>
	<polygon style="fill:#FFFFFF;" points="250.086,354.811 286.118,354.811 286.118,351.441 250.086,351.441 	"/>
	<polygon style="fill:#FFFFFF;" points="250.086,360.724 286.118,360.724 286.118,357.355 250.086,357.355 	"/>
	<polygon style="fill:#FFFFFF;" points="250.086,366.638 286.118,366.638 286.118,363.268 250.086,363.268 	"/>
	<polygon style="fill:#FFFFFF;" points="265.214,372.551 286.118,372.551 286.118,369.182 265.214,369.182 	"/>
</g>
<path style="fill:#E4E7ED;" d="M112.632,295.882h72.75c1.169,0,2.063,0.963,2.063,2.063v139.724c0,1.169-0.963,2.063-2.063,2.063
	h-72.75c-1.169,0-2.063-0.963-2.063-2.063V297.945C110.569,296.776,111.532,295.882,112.632,295.882z"/>
<path style="fill:#83CF8F;" d="M115.864,315.273h66.355c0.894,0,1.582,0.688,1.582,1.582V418.69c0,0.894-0.688,1.582-1.582,1.582
	h-66.355c-0.894,0-1.582-0.688-1.582-1.582V316.854C114.282,315.96,114.97,315.273,115.864,315.273z"/>
<g>
	<path style="fill:#FFFFFF;" d="M131.541,304.752h34.931c0.825,0,1.444,0.619,1.444,1.444l0,0c0,0.825-0.619,1.444-1.444,1.444
		h-34.931c-0.825,0-1.444-0.619-1.444-1.444l0,0C130.097,305.371,130.785,304.752,131.541,304.752z"/>
	<path style="fill:#FFFFFF;" d="M149.007,424.535c3.438,0,6.189,2.75,6.189,6.189s-2.75,6.189-6.189,6.189
		c-3.438,0-6.189-2.75-6.189-6.189S145.569,424.535,149.007,424.535z"/>
	<path style="fill:#FFFFFF;" d="M120.127,302.552c2.132,0,3.782,1.719,3.782,3.782c0,2.132-1.719,3.782-3.782,3.782
		c-2.132,0-3.782-1.719-3.782-3.782C116.345,304.202,118.064,302.552,120.127,302.552z"/>
</g>
<path style="fill:#FF7069;" d="M120.471,388.023c0,0,3.163-9.558,3.301-17.534c-0.55-1.444-0.825-3.026-0.825-4.607v-7.358
	c0-7.495,6.12-13.615,13.615-13.615h26.267c7.495,0,13.615,6.12,13.615,13.615v7.358c0,7.495-6.051,13.615-13.615,13.615h-26.267
	c-1.1,0-2.132-0.138-3.163-0.413c-2.682,1.444-8.114,4.607-12.858,8.939H120.471z"/>
<g>
	<polygon style="fill:#FFFFFF;" points="131.541,354.811 167.572,354.811 167.572,351.441 131.541,351.441 	"/>
	<polygon style="fill:#FFFFFF;" points="131.541,360.724 167.572,360.724 167.572,357.355 131.541,357.355 	"/>
	<polygon style="fill:#FFFFFF;" points="131.541,366.638 167.572,366.638 167.572,363.268 131.541,363.268 	"/>
	<polygon style="fill:#FFFFFF;" points="146.669,372.551 167.572,372.551 167.572,369.182 146.669,369.182 	"/>
	<g>
		<path style="fill:#FFFFFF;" d="M160.971,280.204l-0.069,0.069l-0.206,0.206l-0.206,0.206l-0.206,0.206l-0.206,0.206l-0.206,0.206
			l-0.206,0.206l-0.206,0.206l-0.138,0.206l-0.138,0.206l-0.138,0.138l-0.138,0.206l-0.138,0.138l-0.138,0.138l-0.138,0.138
			l-0.138,0.138l-0.138,0.138l-0.138,0.138l-0.138,0.138l-0.138,0.138l-0.138,0.138l-0.138,0.138l-0.138,0.138l-0.069,0.138
			l-0.069,0.138l-0.069,0.069l-0.069,0.069l-0.069,0.069l-0.069,0.069l-0.069,0.069l-0.069,0.069l-0.069,0.069l-0.069,0.069
			l-0.069,0.069l0,0l-0.069,0.069l-0.069,0.069l0,0l0,0v0.069l-0.069,0.069l0.069-0.069l4.951,4.057l0.069-0.069l-0.069,0.069l0,0
			l0.069-0.069l0.069-0.069l0,0l0,0l0.069-0.069l0.069-0.069l0.069-0.069l0.069-0.069l0.069-0.069l0.069-0.069l0.069-0.069
			l0.069-0.069l0.069-0.069l0.069-0.069l0.069-0.069l0.069-0.138l0.069-0.069l0.069-0.138l0.138-0.138l0.069-0.138l0.138-0.138
			l0.138-0.138l0.138-0.138l0.138-0.138l0.138-0.138l0.138-0.138l0.138-0.138l0.138-0.138l0.138-0.138l0.138-0.206l0.138-0.138
			l0.138-0.138l0.138-0.206l0.206-0.206l0.206-0.206l0.206-0.206l0.206-0.206l0.206-0.206l0.069-0.069l-4.607-4.47L160.971,280.204z
			 M272.159,285.293l-0.619-0.825l-0.619-0.825l-0.619-0.825l-0.55-0.756l-5.088,3.919l0.55,0.688l0.619,0.825l0.619,0.825
			l0.619,0.825l5.226-3.782L272.159,285.293z M265.558,276.904l-0.275-0.344l-0.619-0.688l-0.619-0.688l-0.619-0.688l-0.619-0.688
			l-0.619-0.688l-0.619-0.688l-0.344-0.344l-4.538,4.538l0.344,0.344l0.619,0.619l0.619,0.619l0.619,0.619l0.619,0.619l0.619,0.688
			l0.619,0.688l0.275,0.344l4.813-4.194L265.558,276.904z M256.206,267.483l-0.55-0.481l-0.619-0.55l-0.619-0.55l-0.619-0.55
			l-0.619-0.481l-0.619-0.481l-0.619-0.481l-0.619-0.481l-0.206-0.138l-3.713,5.226l0.138,0.069l0.619,0.413l0.619,0.413
			l0.619,0.481l0.619,0.481l0.619,0.481l0.619,0.481l0.619,0.481l0.55,0.481l4.194-4.882L256.206,267.483z M245.342,259.644h-0.069
			l-0.619-0.344l-0.619-0.344l-0.619-0.344l-0.619-0.344l-0.619-0.344l-0.619-0.344l-0.619-0.344l-0.619-0.275l-0.619-0.275
			l-0.206-0.069l-2.544,5.914l0.138,0.069l0.55,0.275l0.55,0.275l0.55,0.275l0.55,0.275l0.55,0.275l0.55,0.275l0.55,0.344
			l0.55,0.344l0.55,0.344l0,0l3.232-5.57L245.342,259.644z M232.896,254.212l-0.481-0.138l-0.619-0.206l-0.619-0.206l-0.619-0.138
			l-0.619-0.138l-0.619-0.138l-0.619-0.138l-0.619-0.138l-0.619-0.138l-0.619-0.138l-0.413-0.069l-1.031,6.326l0.344,0.069
			l0.55,0.069l0.55,0.138l0.55,0.138l0.55,0.138l0.55,0.138l0.55,0.138l0.55,0.138l0.55,0.138l0.55,0.138l0.481,0.138l1.788-6.189
			L232.896,254.212z M219.488,252.012h-0.275h-0.619h-0.619h-0.619h-0.619h-0.619h-0.619h-0.619l-0.619,0.069l-0.619,0.069
			l-0.619,0.069l-0.413,0.069l0.619,6.395h0.344l0.55-0.069l0.55-0.069h0.55h0.55h0.55h0.55h0.55h0.55h0.55h0.55h0.344l0.206-6.395
			L219.488,252.012z M205.941,253.25l-0.481,0.138l-0.55,0.138l-0.55,0.138l-0.55,0.138l-0.55,0.138l-0.55,0.138l-0.55,0.138
			l-0.55,0.138l-0.55,0.138l-0.55,0.138l-0.55,0.138l-0.413,0.138l1.994,6.12l0.344-0.138l0.481-0.138l0.481-0.138l0.481-0.138
			l0.481-0.138l0.481-0.138l0.481-0.138l0.481-0.138l0.481-0.138l0.481-0.138l0.481-0.138l0.481-0.138l-1.375-6.257L205.941,253.25z
			 M193.152,257.375l-0.206,0.069l-0.481,0.206l-0.481,0.206l-0.481,0.206l-0.481,0.206l-0.481,0.206l-0.481,0.275l-0.481,0.275
			l-0.481,0.275l-0.481,0.275l-0.481,0.275l-0.481,0.275l-0.275,0.138l3.026,5.638l0.275-0.138l0.481-0.206l0.413-0.206l0.481-0.206
			l0.481-0.206l0.481-0.206l0.481-0.206l0.481-0.206l0.481-0.206l0.481-0.206l0.481-0.206l0.481-0.206l0.206-0.069l-2.544-5.914
			L193.152,257.375z M181.393,263.633l-0.413,0.275l-0.413,0.275l-0.413,0.275l-0.413,0.275l-0.413,0.275l-0.413,0.275l-0.413,0.275
			l-0.413,0.275l-0.413,0.275l-0.413,0.275l-0.413,0.275l-0.413,0.275l-0.413,0.275l0,0l3.782,5.157l0,0l0.344-0.275l0.413-0.275
			l0.413-0.275l0.413-0.275l0.413-0.275l0.413-0.275l0.413-0.275l0.413-0.275l0.413-0.275l0.413-0.275l0.413-0.275l0.413-0.275
			l0.413-0.275l-3.438-5.432L181.393,263.633z M170.667,271.334L170.667,271.334l-0.344,0.275l-0.344,0.275l-0.344,0.275
			l-0.344,0.275l-0.344,0.275l-0.344,0.275l-0.344,0.275l-0.344,0.275l-0.344,0.275l-0.344,0.275l-0.344,0.275l-0.275,0.275
			l-0.275,0.275l-0.275,0.275l-0.275,0.275l-0.138,0.138l4.332,4.745l0.138-0.138l0.275-0.275l0.275-0.275l0.275-0.275l0.275-0.275
			l0.275-0.275l0.275-0.275l0.275-0.275l0.275-0.275l0.275-0.275l0.344-0.275l0.344-0.275l0.344-0.275l0.344-0.275l0.344-0.275
			l0.344-0.275l0,0l-4.057-4.951L170.667,271.334z"/>
		<path style="fill:#FFFFFF;" d="M255.862,326.481c-0.069,0.069-0.069,0.138-0.138,0.206c-0.069,0.069-0.138,0.069-0.206,0.069
			c-0.069,0-0.206-0.069-0.344-0.138c-0.138-0.069-0.275-0.206-0.481-0.275c-0.206-0.138-0.413-0.206-0.619-0.275
			c-0.275-0.069-0.55-0.138-0.894-0.138s-0.619,0.069-0.894,0.138c-0.275,0.069-0.481,0.206-0.619,0.344
			c-0.206,0.138-0.275,0.344-0.413,0.55c-0.069,0.206-0.138,0.413-0.138,0.688c0,0.344,0.069,0.55,0.206,0.756
			c0.138,0.206,0.344,0.413,0.619,0.55c0.275,0.138,0.55,0.275,0.894,0.413c0.344,0.138,0.619,0.206,0.963,0.344
			c0.344,0.138,0.688,0.275,0.963,0.413c0.344,0.138,0.619,0.344,0.894,0.55c0.275,0.206,0.481,0.481,0.619,0.825
			c0.138,0.344,0.206,0.688,0.206,1.169c0,0.481-0.069,0.963-0.275,1.375c-0.138,0.413-0.413,0.825-0.756,1.1
			c-0.344,0.344-0.688,0.55-1.169,0.756c-0.481,0.206-1.031,0.275-1.582,0.275c-0.756,0-1.375-0.138-1.994-0.413
			c-0.619-0.275-1.1-0.619-1.513-1.1l0.413-0.688c0.069-0.069,0.069-0.138,0.138-0.138c0.069-0.069,0.138-0.069,0.206-0.069
			c0.069,0,0.138,0,0.206,0.069c0.069,0.069,0.206,0.138,0.275,0.206c0.138,0.069,0.206,0.206,0.413,0.275
			c0.138,0.069,0.275,0.206,0.481,0.275c0.206,0.069,0.413,0.138,0.619,0.206s0.481,0.069,0.756,0.069
			c0.344,0,0.688-0.069,0.963-0.138c0.275-0.069,0.55-0.275,0.688-0.413c0.206-0.206,0.344-0.413,0.481-0.619
			c0.138-0.275,0.138-0.55,0.138-0.825c0-0.344-0.069-0.619-0.206-0.825c-0.138-0.206-0.344-0.413-0.619-0.55
			c-0.275-0.138-0.55-0.275-0.894-0.344s-0.688-0.206-0.963-0.344c-0.344-0.138-0.688-0.206-0.963-0.344
			c-0.344-0.138-0.619-0.344-0.894-0.55c-0.275-0.206-0.481-0.481-0.619-0.825c-0.138-0.344-0.206-0.756-0.206-1.238
			c0-0.413,0.069-0.756,0.206-1.169c0.138-0.344,0.413-0.688,0.688-0.963c0.275-0.275,0.688-0.55,1.1-0.688
			c0.413-0.206,0.894-0.275,1.513-0.275c0.619,0,1.238,0.069,1.719,0.275c0.55,0.206,0.963,0.481,1.375,0.894l-0.344,0.688V326.481z
			 M265.558,334.732v1.238h-6.945v-11.277h6.945v1.238h-5.432v3.713h4.401v1.169h-4.401v3.851h5.432V334.732z M276.835,324.693
			v11.277h-0.756c-0.138,0-0.206,0-0.275-0.069s-0.138-0.138-0.275-0.206l-6.532-8.526c0,0.138,0,0.275,0,0.413
			c0,0.138,0,0.275,0,0.344v8.045h-1.306v-11.277h0.756c0.069,0,0.138,0,0.138,0c0.069,0,0.069,0,0.138,0.069
			c0.069,0,0.069,0.069,0.138,0.069c0.069,0,0.069,0.069,0.138,0.138l6.532,8.458c0-0.138,0-0.275,0-0.413c0-0.138,0-0.275,0-0.344
			v-7.976H276.835z M289.487,330.331c0,0.825-0.138,1.582-0.413,2.269s-0.619,1.306-1.169,1.788c-0.481,0.481-1.1,0.894-1.788,1.169
			s-1.444,0.413-2.269,0.413h-4.194v-11.277h4.194c0.825,0,1.582,0.138,2.269,0.413s1.238,0.619,1.788,1.169
			c0.481,0.481,0.894,1.1,1.169,1.788s0.413,1.444,0.413,2.338V330.331z M287.905,330.331c0-0.688-0.069-1.306-0.275-1.857
			c-0.206-0.55-0.481-1.031-0.825-1.375s-0.756-0.688-1.238-0.894c-0.481-0.206-1.031-0.275-1.65-0.275h-2.682v8.802h2.682
			c0.619,0,1.169-0.069,1.65-0.275c0.481-0.206,0.894-0.481,1.238-0.894c0.344-0.344,0.619-0.825,0.825-1.375
			C287.837,331.638,287.905,331.019,287.905,330.331z"/>
		<path style="fill:#FFFFFF;" d="M123.496,329.094c0.413,0,0.756-0.069,1.1-0.138c0.344-0.138,0.55-0.275,0.825-0.413
			c0.206-0.206,0.344-0.413,0.481-0.688c0.138-0.275,0.138-0.55,0.138-0.825c0-0.619-0.206-1.1-0.619-1.444
			c-0.413-0.344-1.031-0.481-1.857-0.481h-1.582v3.988H123.496z M128.378,334.595h-1.306c-0.275,0-0.481-0.069-0.55-0.275
			l-2.75-3.782c-0.069-0.138-0.206-0.206-0.275-0.275c-0.069-0.069-0.275-0.069-0.481-0.069h-1.1v4.47h-1.444v-10.658h3.026
			c0.688,0,1.238,0.069,1.719,0.206c0.481,0.138,0.894,0.344,1.238,0.619c0.344,0.275,0.55,0.55,0.688,0.963
			c0.138,0.344,0.206,0.756,0.206,1.238c0,0.344-0.069,0.756-0.206,1.031c-0.138,0.344-0.275,0.619-0.481,0.894
			c-0.206,0.275-0.481,0.481-0.825,0.688c-0.344,0.206-0.688,0.344-1.1,0.413c0.206,0.069,0.344,0.275,0.481,0.481l3.094,4.194
			L128.378,334.595z M136.355,333.426v1.169h-6.532v-10.658h6.532v1.169h-5.088v3.507h4.126v1.1h-4.126v3.644h5.088V333.426z
			 M145.569,332.394c0.069,0,0.138,0,0.206,0.069l0.55,0.619c-0.413,0.481-0.963,0.894-1.582,1.169
			c-0.619,0.275-1.375,0.413-2.269,0.413c-0.756,0-1.444-0.138-2.063-0.413c-0.619-0.275-1.169-0.619-1.582-1.1
			c-0.413-0.481-0.756-1.031-1.031-1.719c-0.275-0.688-0.344-1.375-0.344-2.2s0.138-1.513,0.344-2.2
			c0.275-0.688,0.619-1.238,1.031-1.719c0.481-0.481,1.031-0.825,1.65-1.1c0.619-0.275,1.375-0.413,2.132-0.413
			s1.444,0.138,1.994,0.344c0.55,0.275,1.1,0.55,1.513,0.963l-0.481,0.688c0,0.069-0.069,0.069-0.138,0.138
			c-0.069,0-0.138,0.069-0.206,0.069s-0.206-0.069-0.344-0.138s-0.275-0.206-0.481-0.344s-0.481-0.206-0.756-0.344
			c-0.344-0.069-0.688-0.138-1.169-0.138c-0.55,0-1.031,0.069-1.513,0.275c-0.481,0.206-0.825,0.481-1.169,0.825
			s-0.619,0.825-0.756,1.306c-0.206,0.55-0.275,1.1-0.275,1.788s0.069,1.238,0.275,1.788c0.206,0.55,0.481,0.963,0.756,1.306
			c0.344,0.344,0.688,0.619,1.169,0.825c0.413,0.206,0.894,0.275,1.444,0.275c0.344,0,0.619,0,0.825-0.069
			c0.275-0.069,0.481-0.069,0.688-0.138s0.413-0.206,0.619-0.275c0.206-0.138,0.344-0.275,0.55-0.413
			c0.069-0.069,0.138-0.138,0.275-0.138H145.569z M154.576,333.426v1.169h-6.532v-10.658h6.532v1.169h-5.088v3.507h4.126v1.1h-4.126
			v3.644h5.088V333.426z M158.015,334.595h-1.444v-10.658h1.444V334.595z M169.36,323.937l-4.332,10.658h-1.306l-4.332-10.658h1.169
			c0.138,0,0.206,0,0.344,0.069c0.069,0.069,0.138,0.138,0.206,0.275l3.026,7.495c0.069,0.138,0.138,0.344,0.206,0.55
			c0.069,0.206,0.138,0.413,0.138,0.619c0.069-0.206,0.069-0.413,0.138-0.619c0.069-0.206,0.138-0.344,0.206-0.55l2.957-7.495
			c0-0.069,0.069-0.138,0.206-0.206c0.069-0.069,0.206-0.138,0.344-0.138h1.169H169.36z M177.337,333.426v1.169h-6.532v-10.658
			h6.532v1.169h-5.088v3.507h4.126v1.1h-4.126v3.644h5.088V333.426z"/>
	</g>
</g>
<polygon style="fill:#FFE45E;" points="170.529,115.313 154.783,128.653 127.347,96.266 143.093,82.927 "/>
<path style="fill:#E4E7ED;" d="M167.71,111.944l-15.746,13.34c-1.238,1.031-3.094,0.894-4.126-0.344l-14.234-16.778
	c-1.031-1.238-0.894-3.094,0.344-4.126l15.746-13.34c1.238-1.031,3.094-0.894,4.126,0.344l14.234,16.778
	C169.085,109.056,168.948,110.913,167.71,111.944z"/>
<polygon style="fill:#FFFFFF;" points="165.097,109.606 151.551,93.585 136.492,106.306 150.107,122.327 "/>
<polygon style="fill:#E4E7ED;" points="167.779,117.583 157.533,126.315 158.84,127.897 169.085,119.164 "/>
<g>
	<path style="fill:#FFFFFF;" d="M172.248,133.26c-1.1,0.894-2.682,0.756-3.576-0.275c-0.756-0.894-0.756-2.2-0.138-3.163
		l-5.02-5.982l0.894-0.756l5.02,5.982c1.031-0.55,2.338-0.275,3.094,0.619C173.417,130.785,173.28,132.366,172.248,133.26z"/>
	<polygon style="fill:#FFFFFF;" points="141.512,117.514 137.936,120.539 136.286,118.545 139.861,115.52 	"/>
</g>
<g>
	<polygon style="fill:#E4E7ED;" points="150.244,131.541 85.127,186.688 62.298,159.734 127.416,104.587 	"/>
	<polygon style="fill:#E4E7ED;" points="143.093,82.927 127.347,96.266 123.29,93.585 141.03,78.595 	"/>
</g>
<polygon style="fill:#FFFFFF;" points="161.728,100.323 165.372,97.298 163.722,95.373 160.077,98.398 "/>
<polygon style="fill:#E4E7ED;" points="174.174,111.257 239.291,56.11 216.531,29.224 151.413,84.302 "/>
<g>
	<path style="fill:#FFE356;" d="M166.128,175.961l0.756-3.094l1.306,0.344c1.925,0.55,3.851,0.894,5.776,1.1
		c9.695,1.1,19.116-1.719,26.336-7.839s11.552-14.921,12.102-24.685c0.138-1.925,0.069-3.919-0.138-5.914l-0.138-1.306l2.063-0.138
		l4.538,0.138l0.069,0.963c0.275,2.338,0.275,4.676,0.206,7.014c-0.619,11.483-5.776,21.866-14.302,29.086
		s-19.666,10.521-31.08,9.283c-2.338-0.275-4.607-0.688-6.876-1.306l-1.031-0.275l0.481-3.301L166.128,175.961z"/>
	<path style="fill:#FFE356;" d="M167.229,168.26l1.513-6.257l1.306,0.344c1.306,0.344,2.613,0.619,3.919,0.756
		c6.876,0.756,13.615-1.238,18.772-5.57c5.157-4.332,8.251-10.658,8.595-17.534c0.069-1.306,0.069-2.682-0.069-3.988l-0.138-1.306
		l5.501-0.413h1.031l0.138,1.306c0.138,1.719,0.206,3.438,0.138,5.088c-0.481,8.664-4.332,16.572-10.796,22.004
		c-6.464,5.432-14.853,7.976-23.517,7.014c-1.719-0.206-3.369-0.481-5.02-0.963l-1.306-0.344v-0.069L167.229,168.26z"/>
	<path style="fill:#FFE356;" d="M169.635,151.413l1.1,0.275c0.756,0.206,1.513,0.344,2.269,0.413
		c4.47,0.481,8.733-0.825,12.033-3.576c3.301-2.819,5.295-6.876,5.57-11.277c0.069-0.756,0.069-1.513,0-2.338l-0.069-1.1
		l6.601,0.206l0.069,0.55c0.069,1.169,0.138,2.269,0.069,3.438c-0.344,6.189-3.094,11.827-7.701,15.746
		c-4.607,3.919-10.658,5.707-16.847,5.02c-1.1-0.138-2.269-0.344-3.369-0.619l-0.619-0.138l0.963-6.464L169.635,151.413z"/>
	<path style="fill:#FFE356;" d="M171.079,141.374l0.275,0.069c2.269,0.275,4.47-0.413,6.189-1.857
		c1.719-1.444,2.682-3.507,2.819-5.776v-0.275l6.532,0.206c0,0.275,0,0.55,0,0.825c-0.206,4.057-1.994,7.701-5.02,10.245
		c-3.026,2.544-6.876,3.713-10.933,3.232c-0.275,0-0.55-0.069-0.825-0.138l0.894-6.464L171.079,141.374z"/>
</g>
<polygon style="fill:#CED4DB;" points="146.394,133.329 135.323,142.681 125.215,130.785 136.286,121.364 "/>
<polygon style="fill:#FFFFFF;" points="145.087,133.26 135.529,141.443 126.522,130.854 136.148,122.671 "/>
<polygon style="fill:#CED4DB;" points="134.36,143.299 123.29,152.651 113.113,140.755 124.252,131.335 "/>
<polygon style="fill:#FFFFFF;" points="133.054,143.231 123.427,151.345 114.488,140.755 124.046,132.641 "/>
<polygon style="fill:#CED4DB;" points="122.258,153.201 111.188,162.622 101.08,150.657 112.15,141.305 "/>
<polygon style="fill:#FFFFFF;" points="120.952,153.201 111.325,161.315 102.386,150.726 112.013,142.612 "/>
<polygon style="fill:#CED4DB;" points="110.225,163.172 99.154,172.592 88.978,160.627 100.117,151.207 "/>
<polygon style="fill:#FFFFFF;" points="108.919,163.103 99.292,171.286 90.353,160.696 99.911,152.514 "/>
<polygon style="fill:#CED4DB;" points="98.123,173.142 87.052,182.494 76.944,170.598 88.015,161.178 "/>
<polygon style="fill:#FFFFFF;" points="96.817,173.073 87.19,181.187 78.251,170.598 87.878,162.484 "/>
<polygon style="fill:#CED4DB;" points="135.598,120.746 124.459,130.097 114.351,118.201 125.49,108.781 "/>
<polygon style="fill:#FFFFFF;" points="134.292,120.677 124.665,128.791 115.726,118.201 125.284,110.088 "/>
<polygon style="fill:#CED4DB;" points="123.496,130.647 112.425,140.068 102.317,128.103 113.388,118.752 "/>
<polygon style="fill:#FFFFFF;" points="122.19,130.647 112.563,138.761 103.624,128.172 113.251,120.058 "/>
<polygon style="fill:#CED4DB;" points="111.463,140.618 100.323,150.038 90.215,138.074 101.355,128.653 "/>
<polygon style="fill:#FFFFFF;" points="110.156,140.549 100.53,148.732 91.522,138.142 101.149,129.96 "/>
<polygon style="fill:#CED4DB;" points="99.361,150.588 88.29,159.94 78.182,148.044 89.253,138.624 "/>
<polygon style="fill:#FFFFFF;" points="98.054,150.519 88.428,158.633 79.489,148.044 89.115,139.93 "/>
<polygon style="fill:#CED4DB;" points="87.327,160.49 76.188,169.91 66.08,158.015 77.219,148.594 "/>
<polygon style="fill:#FFFFFF;" points="86.021,160.49 76.394,168.604 67.387,158.015 77.013,149.901 "/>
<polygon style="fill:#CED4DB;" points="235.509,57.897 224.37,67.318 214.262,55.353 225.401,46.002 "/>
<polygon style="fill:#FFFFFF;" points="234.203,57.897 224.576,66.011 215.637,55.422 225.195,47.308 "/>
<polygon style="fill:#CED4DB;" points="223.407,67.868 212.336,77.219 202.228,65.324 213.299,55.903 "/>
<polygon style="fill:#FFFFFF;" points="222.1,67.799 212.474,75.982 203.535,65.392 213.161,57.21 "/>
<polygon style="fill:#CED4DB;" points="211.374,77.838 200.234,87.19 190.126,75.294 201.266,65.874 "/>
<polygon style="fill:#FFFFFF;" points="210.067,77.77 200.441,85.883 191.501,75.294 201.059,67.18 "/>
<polygon style="fill:#CED4DB;" points="199.272,87.74 188.201,97.16 178.093,85.196 189.164,75.844 "/>
<polygon style="fill:#FFFFFF;" points="197.965,87.74 188.338,95.854 179.399,85.265 189.026,77.151 "/>
<polygon style="fill:#CED4DB;" points="187.238,97.71 176.099,107.131 165.991,95.166 177.13,85.815 "/>
<polygon style="fill:#FFFFFF;" points="185.932,97.71 176.305,105.824 167.297,95.235 176.924,87.052 "/>
<polygon style="fill:#CED4DB;" points="224.645,45.314 213.574,54.666 203.466,42.77 214.537,33.349 "/>
<polygon style="fill:#FFFFFF;" points="223.338,45.245 213.712,53.428 204.772,42.839 214.399,34.656 "/>
<polygon style="fill:#CED4DB;" points="212.611,55.284 201.472,64.636 191.364,52.74 202.503,43.32 "/>
<polygon style="fill:#FFFFFF;" points="211.305,55.216 201.678,63.33 192.67,52.74 202.297,44.626 "/>
<polygon style="fill:#CED4DB;" points="200.509,65.186 189.439,74.606 179.331,62.642 190.401,53.29 "/>
<polygon style="fill:#FFFFFF;" points="199.203,65.186 189.576,73.3 180.637,62.711 190.264,54.597 "/>
<polygon style="fill:#CED4DB;" points="188.476,75.157 177.337,84.577 167.229,72.612 178.368,63.192 "/>
<polygon style="fill:#FFFFFF;" points="187.169,75.088 177.543,83.27 168.535,72.681 178.162,64.499 "/>
<polygon style="fill:#CED4DB;" points="176.374,85.127 165.303,94.479 155.195,82.583 166.266,73.163 "/>
<polygon style="fill:#FFFFFF;" points="175.067,85.058 165.441,93.172 156.502,82.583 166.128,74.469 "/>
<g>
</g>
<g>
</g>
<g>
</g>
<g>
</g>
<g>
</g>
<g>
</g>
<g>
</g>
<g>
</g>
<g>
</g>
<g>
</g>
<g>
</g>
<g>
</g>
<g>
</g>
<g>
</g>
<g>
</g>
</svg>
