<?xml version="1.0" encoding="iso-8859-1"?>
<!-- Generator: Adobe Illustrator 19.0.0, SVG Export Plug-In . SVG Version: 6.00 Build 0)  -->
<svg version="1.1" id="Layer_1" xmlns="http://www.w3.org/2000/svg" xmlns:xlink="http://www.w3.org/1999/xlink" x="0px" y="0px"
	 viewBox="0 0 512 512" style="enable-background:new 0 0 512 512;" xml:space="preserve">
<circle style="fill:#6B7F9E;" cx="256" cy="256" r="256"/>
<path style="fill:#596366;" d="M173.46,284.242h266.932c8.746,0,15.852,7.106,15.852,16.034v164.532H157.426V300.276
	C157.426,291.53,164.532,284.242,173.46,284.242z"/>
<path style="fill:#ECF0F1;" d="M168.359,453.876h277.136v-153.6c0-2.733-2.369-5.102-5.102-5.102H173.46
	c-2.733,0-5.102,2.369-5.102,5.102V453.876z"/>
<path style="fill:#E4E7ED;" d="M135.197,464.626h343.459v9.293c0,5.102-4.191,9.293-9.293,9.293H144.49
	c-5.102,0-9.293-4.191-9.293-9.293V464.626z"/>
<polygon style="fill:#C6CBD6;" points="274.221,467.359 339.633,467.359 332.527,472.097 281.145,472.097 "/>
<polygon style="fill:#FFFFFF;" points="67.052,211.906 41.543,287.704 105.133,287.704 79.806,211.906 73.429,210.995 "/>
<polygon style="fill:#E4E7ED;" points="73.429,287.704 105.133,287.704 79.806,211.906 73.429,210.995 "/>
<g>
	<path style="fill:#C6CBD6;" d="M67.052,212.088l7.47-6.742c1.275-1.093,3.098-0.911,4.191,0.182l2.369,2.733
		c1.093,1.275,0.911,3.098-0.182,4.191l-7.47,6.742c-1.275,1.093-3.098,0.911-4.191-0.182l-2.369-2.733
		C65.777,215.004,65.959,213.182,67.052,212.088z"/>
	<path style="fill:#C6CBD6;" d="M87.095,193.503l7.106,8.017c1.822,2.004,1.64,5.102-0.364,6.924l-10.021,8.928
		c-2.004,1.822-5.102,1.64-6.924-0.364l-7.106-8.017c-1.822-2.004-1.64-5.102,0.364-6.924l10.021-8.928
		C82.175,191.317,85.273,191.499,87.095,193.503z"/>
</g>
<path style="fill:#E4E7ED;" d="M151.049,221.563c-0.182,0.182-0.364,0.364-0.547,0.547c-19.314,17.127-52.658,11.297-74.158-12.937
	c-21.5-24.416-23.322-57.942-4.009-75.069c0.182-0.182,0.364-0.364,0.729-0.547c-4.737,4.737,8.564,28.06,29.882,52.111
	s42.819,40.085,48.103,36.077V221.563z"/>
<path style="fill:#FFFFFF;" d="M82.175,215.186c-2.186-1.822-4.191-3.826-6.013-6.013c-21.5-24.416-23.322-57.942-4.009-75.069
	c0.182-0.182,0.364-0.364,0.729-0.547c-4.737,4.737,8.564,28.06,29.882,52.111c15.123,17.127,30.428,30.246,39.903,34.801
	c-17.127,9.11-40.632,6.924-60.493-5.102V215.186z"/>
<path style="fill:#83CF8F;" d="M121.349,169.27c21.5,24.416,34.984,47.738,29.882,52.293c-5.102,4.555-26.602-11.661-48.285-35.895
	c-21.5-24.416-34.984-47.738-29.882-52.293C78.167,128.82,99.667,145.036,121.349,169.27z"/>
<path style="fill:#E4E7ED;" d="M142.85,154.329l-18.038,53.204c-1.458-1.275-3.098-2.733-4.737-4.191l17.492-45.734l-32.433,30.428
	c-0.729-0.729-1.275-1.458-2.004-2.186c-0.729-0.729-1.275-1.458-2.004-2.369l33.162-28.789l-46.645,12.026
	c-1.275-1.822-2.551-3.462-3.644-5.102l55.026-11.479l4.009,4.555L142.85,154.329z"/>
<g>
	<path style="fill:#FFFFFF;" d="M147.952,145.583c3.28,3.826,2.915,9.475-0.729,12.937c-3.826,3.28-9.475,2.915-12.937-0.729
		c-3.28-3.826-2.915-9.475,0.729-12.937C138.841,141.574,144.49,141.939,147.952,145.583z"/>
	<path style="fill:#FFFFFF;" d="M131.735,149.409l10.568,11.843c0.547,0.547,0.364,1.275-0.182,1.822l-1.093,1.093
		c-0.547,0.547-1.275,0.364-1.822-0.182l-10.568-11.843c-0.547-0.547-0.364-1.275,0.182-1.822l1.093-1.093
		C130.46,148.68,131.189,148.863,131.735,149.409z"/>
	<path style="fill:#FFFFFF;" d="M70.332,213.546c0.911-0.182,1.64,0.547,1.64,1.275c0.182,0.729-0.547,1.64-1.275,1.64
		c-0.729,0.182-1.64-0.547-1.64-1.275C68.874,214.457,69.603,213.546,70.332,213.546z"/>
</g>
<path style="fill:#83CF8F;" d="M37.717,286.975h73.429c1.458,0,2.551,1.093,2.551,2.551v2.551H35.166v-2.551
	C35.166,288.068,36.259,286.975,37.717,286.975z"/>
<g>
	<path style="fill:#FEFEFE;" d="M144.125,132.646c-1.275,0.182-2.369-0.729-2.551-2.004c-0.182-1.275,0.729-2.369,2.004-2.551
		c3.098-0.364,6.013,0,8.928,1.275c2.733,1.093,5.284,2.733,7.288,5.284c2.004,2.369,3.462,5.102,4.009,8.017
		c0.729,2.915,0.547,6.013-0.182,8.928c-0.364,1.275-1.64,2.004-2.915,1.64c-1.275-0.364-2.004-1.64-1.64-2.915
		c0.547-2.186,0.729-4.555,0.182-6.742s-1.458-4.191-3.098-6.013c-1.458-1.822-3.462-3.098-5.466-3.826
		c-2.186-0.911-4.373-1.093-6.742-0.911L144.125,132.646z M138.295,80.535c-1.275,0.182-2.369-0.729-2.551-2.004
		s0.729-2.369,2.004-2.551c11.479-1.275,23.14,0.364,34.073,4.555c10.386,4.191,20.043,10.75,27.878,19.86
		c7.835,9.11,12.937,19.678,15.305,30.611c2.551,11.297,2.369,23.14-0.729,34.255c-0.364,1.275-1.64,2.004-2.915,1.64
		c-1.275-0.364-2.004-1.64-1.64-2.915c2.733-10.386,3.098-21.5,0.729-32.068c-2.369-10.204-7.106-20.043-14.394-28.606
		s-16.216-14.759-26.056-18.585C159.977,80.717,149.045,79.26,138.295,80.535z M140.299,97.845
		c-1.275,0.182-2.369-0.729-2.551-2.004s0.729-2.369,2.004-2.551c8.746-0.911,17.492,0.182,25.691,3.462
		c7.835,3.098,15.123,8.199,20.954,14.941c5.831,6.924,9.657,14.759,11.661,23.14c2.004,8.564,1.822,17.492-0.547,25.873
		c-0.364,1.275-1.64,2.004-2.915,1.64c-1.275-0.364-2.004-1.64-1.64-2.915c2.004-7.653,2.186-15.852,0.547-23.687
		c-1.64-7.47-5.284-14.759-10.568-20.954c-5.466-6.195-12.026-10.932-19.132-13.665c-7.47-2.915-15.488-4.009-23.505-3.098V97.845z
		 M141.939,112.968c-1.275,0.182-2.369-0.729-2.551-2.004c-0.182-1.275,0.729-2.369,2.004-2.551
		c6.195-0.729,12.572,0.182,18.403,2.551c5.648,2.186,10.932,5.831,15.123,10.75c4.191,4.92,6.924,10.568,8.382,16.581
		c1.458,6.195,1.275,12.572-0.364,18.585c-0.364,1.275-1.64,2.004-2.915,1.64c-1.275-0.364-2.004-1.64-1.64-2.915
		c1.458-5.284,1.64-10.932,0.364-16.399c-1.093-5.284-3.644-10.204-7.288-14.577c-3.644-4.373-8.199-7.47-13.301-9.475
		C153.053,113.15,147.405,112.421,141.939,112.968z"/>
	<path style="fill:#FEFEFE;" d="M255.818,110.599v5.831H226.3v-5.831H255.818z M71.425,295.357v12.572h5.831v-12.572H71.425z
		 M71.425,325.785h5.831v29.517h-5.831V325.785z M71.425,372.977h5.831v7.47H93.29v5.831H74.158h-2.915v-2.915v-10.386H71.425z
		 M111.146,386.278v-5.831h29.517v5.831H111.146z M385.913,269.483h-5.831v-29.517h5.831V269.483z M385.913,222.292h-5.831v-29.517
		h5.831V222.292z M385.913,175.1h-5.831v-29.517h5.831V175.1z M385.913,127.909h-5.831V116.43h-12.026v-5.831h14.941h2.915v2.915
		V127.909z M350.201,110.417v5.831h-29.517v-5.831H350.201z M303.009,110.417v5.831h-29.517v-5.831H303.009z"/>
</g>
<g>
</g>
<g>
</g>
<g>
</g>
<g>
</g>
<g>
</g>
<g>
</g>
<g>
</g>
<g>
</g>
<g>
</g>
<g>
</g>
<g>
</g>
<g>
</g>
<g>
</g>
<g>
</g>
<g>
</g>
</svg>
