<?xml version="1.0" encoding="iso-8859-1"?>
<!-- Generator: Adobe Illustrator 19.0.0, SVG Export Plug-In . SVG Version: 6.00 Build 0)  -->
<svg version="1.1" id="Layer_1" xmlns="http://www.w3.org/2000/svg" xmlns:xlink="http://www.w3.org/1999/xlink" x="0px" y="0px"
	 viewBox="0 0 512 512" style="enable-background:new 0 0 512 512;" xml:space="preserve">
<circle style="fill:#6B7F9E;" cx="256" cy="256" r="256"/>
<path style="fill:#FEFEFE;" d="M135.466,161.508l123.162,216.459l132.48-179.546l-255.522-36.913H135.466z M253.372,390.272
	l-132.48-232.944l-5.376-9.437l10.632,1.553l274.994,39.78l8.72,1.314l-5.256,7.168L262.092,390.869l-4.778,6.57l-4.062-7.048
	L253.372,390.272z"/>
<path style="fill:#83CF8F;" d="M125.432,106.199c26.759,0,48.5,21.741,48.5,48.5s-21.741,48.5-48.5,48.5s-48.5-21.741-48.5-48.5
	S98.673,106.199,125.432,106.199z"/>
<path style="fill:#A3E0AC;" d="M113.008,123.401c8.72,0,15.769,7.048,15.769,15.769c0,5.137-2.509,9.676-6.212,12.663
	c-2.628,2.031-5.973,3.225-9.557,3.225c-8.72,0-15.769-7.048-15.769-15.769s7.048-15.769,15.769-15.769V123.401z"/>
<path style="fill:#FFE356;" d="M400.545,145.979c26.759,0,48.5,21.741,48.5,48.5s-21.741,48.5-48.5,48.5s-48.5-21.741-48.5-48.5
	S373.786,145.979,400.545,145.979z"/>
<path style="fill:#FFEF9C;" d="M388.002,163.181c8.72,0,15.769,7.048,15.769,15.769s-7.048,15.769-15.769,15.769
	c-8.72,0-15.769-7.048-15.769-15.769S379.281,163.181,388.002,163.181z"/>
<path style="fill:#FF7069;" d="M257.911,339.143c26.759,0,48.5,21.741,48.5,48.5s-21.741,48.5-48.5,48.5s-48.5-21.741-48.5-48.5
	S231.153,339.143,257.911,339.143z"/>
<path style="fill:#FF9B96;" d="M245.488,356.345c8.72,0,15.769,7.048,15.769,15.769s-7.048,15.769-15.769,15.769
	s-15.769-7.048-15.769-15.769S236.767,356.345,245.488,356.345z"/>
<g>
</g>
<g>
</g>
<g>
</g>
<g>
</g>
<g>
</g>
<g>
</g>
<g>
</g>
<g>
</g>
<g>
</g>
<g>
</g>
<g>
</g>
<g>
</g>
<g>
</g>
<g>
</g>
<g>
</g>
</svg>
