<?xml version="1.0" encoding="utf-8"?>
<!-- Generator: Adobe Illustrator 16.0.0, SVG Export Plug-In . SVG Version: 6.00 Build 0)  -->
<!DOCTYPE svg PUBLIC "-//W3C//DTD SVG 1.1//EN" "http://www.w3.org/Graphics/SVG/1.1/DTD/svg11.dtd">
<svg version="1.1" id="Calque_1" xmlns="http://www.w3.org/2000/svg" xmlns:xlink="http://www.w3.org/1999/xlink" x="0px" y="0px"
	 width="1600px" height="322px" viewBox="0 0 1600 322" enable-background="new 0 0 1600 322" xml:space="preserve">
<g>
	<defs>
		<rect id="SVGID_1_" x="-81.635" width="1763.273" height="267.699"/>
	</defs>
	<clipPath id="SVGID_2_">
		<use xlink:href="#SVGID_1_"  overflow="visible"/>
	</clipPath>
	<path clip-path="url(#SVGID_2_)" fill="#FCF8F5" d="M679.817,189.212c0,9.649-7.822,17.472-17.472,17.472
		s-17.472-7.82-17.472-17.472c0-9.647,7.822-17.471,17.472-17.471C671.995,171.742,679.817,179.564,679.817,189.212"/>
</g>
<g>
	<defs>
		<rect id="SVGID_3_" x="-81.635" width="1763.273" height="267.699"/>
	</defs>
	<clipPath id="SVGID_4_">
		<use xlink:href="#SVGID_3_"  overflow="visible"/>
	</clipPath>
	<path clip-path="url(#SVGID_4_)" fill="#FCF8F5" d="M959.317,189.212c0,9.649-7.822,17.472-17.473,17.472
		c-9.649,0-17.472-7.82-17.472-17.472c0-9.647,7.822-17.471,17.472-17.471C951.495,171.741,959.317,179.564,959.317,189.212"/>
</g>
<g>
	<defs>
		<rect id="SVGID_5_" x="-81.635" width="1763.273" height="267.699"/>
	</defs>
	<clipPath id="SVGID_6_">
		<use xlink:href="#SVGID_5_"  overflow="visible"/>
	</clipPath>
	<path clip-path="url(#SVGID_6_)" fill="#FCF8F5" d="M727.317,183.889c0,15.448-12.523,27.973-27.972,27.973
		c-15.447,0-27.972-12.523-27.972-27.973c0-15.447,12.524-27.971,27.972-27.971C714.794,155.918,727.317,168.441,727.317,183.889"/>
</g>
<g>
	<defs>
		<rect id="SVGID_7_" x="-81.635" width="1763.273" height="267.699"/>
	</defs>
	<clipPath id="SVGID_8_">
		<use xlink:href="#SVGID_7_"  overflow="visible"/>
	</clipPath>
	<path clip-path="url(#SVGID_8_)" fill="#FCF8F5" d="M934.288,189.212c0,15.449-12.522,27.972-27.971,27.972
		c-15.449,0-27.973-12.521-27.973-27.972c0-15.446,12.522-27.97,27.973-27.97C921.766,161.242,934.288,173.766,934.288,189.212"/>
</g>
<g>
	<defs>
		<rect id="SVGID_9_" x="-81.635" width="1763.273" height="267.699"/>
	</defs>
	<clipPath id="SVGID_10_">
		<use xlink:href="#SVGID_9_"  overflow="visible"/>
	</clipPath>
	<path clip-path="url(#SVGID_10_)" fill="#FCF8F5" d="M787.921,198.223c0,23.34-18.92,42.26-42.259,42.26
		s-42.259-18.92-42.259-42.26c0-23.339,18.92-42.259,42.259-42.259S787.921,174.884,787.921,198.223"/>
</g>
<g>
	<defs>
		<rect id="SVGID_11_" x="-81.635" width="1763.273" height="267.699"/>
	</defs>
	<clipPath id="SVGID_12_">
		<use xlink:href="#SVGID_11_"  overflow="visible"/>
	</clipPath>
	<path clip-path="url(#SVGID_12_)" fill="#FCF8F5" d="M853.288,193.389c0,20.694-16.776,37.473-37.471,37.473
		c-20.695,0-37.473-16.777-37.473-37.473c0-20.693,16.777-37.471,37.473-37.471C836.512,155.918,853.288,172.695,853.288,193.389"/>
</g>
<g>
	<defs>
		<rect id="SVGID_13_" x="-81.635" width="1763.273" height="267.699"/>
	</defs>
	<clipPath id="SVGID_14_">
		<use xlink:href="#SVGID_13_"  overflow="visible"/>
	</clipPath>
	<path clip-path="url(#SVGID_14_)" fill="#FCF8F5" d="M887.788,185.889c0,20.694-16.776,37.473-37.471,37.473
		c-20.695,0-37.473-16.777-37.473-37.473c0-20.693,16.776-37.471,37.473-37.471C871.012,148.418,887.788,165.195,887.788,185.889"/>
</g>
<g>
	<defs>
		<rect id="SVGID_15_" x="-81.635" width="1763.273" height="267.699"/>
	</defs>
	<clipPath id="SVGID_16_">
		<use xlink:href="#SVGID_15_"  overflow="visible"/>
	</clipPath>
	<path clip-path="url(#SVGID_16_)" fill="#FCF8F5" d="M893.01,171.742c0,16.414-13.307,29.721-29.721,29.721
		c-16.415,0-29.723-13.307-29.723-29.721c0-16.416,13.308-29.721,29.723-29.721C879.703,142.021,893.01,155.326,893.01,171.742"/>
</g>
<g>
	<defs>
		<rect id="SVGID_17_" x="-81.635" width="1763.273" height="267.699"/>
	</defs>
	<clipPath id="SVGID_18_">
		<use xlink:href="#SVGID_17_"  overflow="visible"/>
	</clipPath>
	<path clip-path="url(#SVGID_18_)" fill="#FCF8F5" d="M652.688,183.889c0,28.062-22.747,50.811-50.809,50.811
		c-28.061,0-50.809-22.748-50.809-50.811c0-28.061,22.748-50.809,50.809-50.809C629.94,133.08,652.688,155.828,652.688,183.889"/>
</g>
<g>
	<defs>
		<rect id="SVGID_19_" x="-81.635" width="1763.273" height="267.699"/>
	</defs>
	<clipPath id="SVGID_20_">
		<use xlink:href="#SVGID_19_"  overflow="visible"/>
	</clipPath>
	<path clip-path="url(#SVGID_20_)" fill="#FCF8F5" d="M428.354,144.08c0,34.136-27.673,61.809-61.809,61.809
		s-61.809-27.673-61.809-61.809c0-34.136,27.673-61.809,61.809-61.809S428.354,109.944,428.354,144.08"/>
</g>
<g>
	<defs>
		<rect id="SVGID_21_" x="-81.635" width="1763.273" height="267.699"/>
	</defs>
	<clipPath id="SVGID_22_">
		<use xlink:href="#SVGID_21_"  overflow="visible"/>
	</clipPath>
	<path clip-path="url(#SVGID_22_)" fill="#FCF8F5" d="M554.354,205.889c0,34.137-27.673,61.811-61.809,61.811
		s-61.809-27.674-61.809-61.811c0-34.136,27.673-61.809,61.809-61.809S554.354,171.753,554.354,205.889"/>
</g>
<g>
	<defs>
		<rect id="SVGID_23_" x="-81.635" width="1763.273" height="267.699"/>
	</defs>
	<clipPath id="SVGID_24_">
		<use xlink:href="#SVGID_23_"  overflow="visible"/>
	</clipPath>
	<path clip-path="url(#SVGID_24_)" fill="#FCF8F5" d="M1094.354,198.223c0,34.137-27.673,61.809-61.81,61.809
		c-34.136,0-61.81-27.672-61.81-61.809c0-34.136,27.674-61.81,61.81-61.81C1066.682,136.413,1094.354,164.087,1094.354,198.223"/>
</g>
<g>
	<defs>
		<rect id="SVGID_25_" x="-81.635" width="1763.273" height="267.699"/>
	</defs>
	<clipPath id="SVGID_26_">
		<use xlink:href="#SVGID_25_"  overflow="visible"/>
	</clipPath>
	<path clip-path="url(#SVGID_26_)" fill="#FCF8F5" d="M1241.688,144.08c0,34.136-27.673,61.809-61.809,61.809
		c-34.137,0-61.81-27.673-61.81-61.809c0-34.136,27.673-61.809,61.81-61.809C1214.015,82.271,1241.688,109.944,1241.688,144.08"/>
</g>
<g>
	<defs>
		<rect id="SVGID_27_" x="-81.635" width="1763.273" height="267.699"/>
	</defs>
	<clipPath id="SVGID_28_">
		<use xlink:href="#SVGID_27_"  overflow="visible"/>
	</clipPath>
	<path clip-path="url(#SVGID_28_)" fill="#FCF8F5" d="M1416.688,119.747c0,43.34-35.135,78.476-78.476,78.476
		s-78.477-35.136-78.477-78.476c0-43.341,35.136-78.476,78.477-78.476S1416.688,76.406,1416.688,119.747"/>
</g>
<g>
	<defs>
		<rect id="SVGID_29_" x="-81.635" width="1763.273" height="267.699"/>
	</defs>
	<clipPath id="SVGID_30_">
		<use xlink:href="#SVGID_29_"  overflow="visible"/>
	</clipPath>
	<path clip-path="url(#SVGID_30_)" fill="#FCF8F5" d="M1573.639,128.918c0,43.341-35.135,78.477-78.476,78.477
		s-78.475-35.136-78.475-78.477s35.134-78.476,78.475-78.476S1573.639,85.577,1573.639,128.918"/>
</g>
<g>
	<defs>
		<rect id="SVGID_31_" x="-81.635" width="1763.273" height="267.699"/>
	</defs>
	<clipPath id="SVGID_32_">
		<use xlink:href="#SVGID_31_"  overflow="visible"/>
	</clipPath>
	<path clip-path="url(#SVGID_32_)" fill="#FCF8F5" d="M1681.639,119.747c0,43.34-35.135,78.476-78.476,78.476
		s-78.475-35.136-78.475-78.476c0-43.341,35.134-78.476,78.475-78.476S1681.639,76.406,1681.639,119.747"/>
</g>
<g>
	<defs>
		<rect id="SVGID_33_" x="-81.635" width="1763.273" height="267.699"/>
	</defs>
	<clipPath id="SVGID_34_">
		<use xlink:href="#SVGID_33_"  overflow="visible"/>
	</clipPath>
	<path clip-path="url(#SVGID_34_)" fill="#FCF8F5" d="M291.021,119.747c0,43.34-35.135,78.476-78.476,78.476
		s-78.475-35.136-78.475-78.476c0-43.341,35.134-78.476,78.475-78.476S291.021,76.406,291.021,119.747"/>
</g>
<g>
	<defs>
		<rect id="SVGID_35_" x="-81.635" width="1763.273" height="267.699"/>
	</defs>
	<clipPath id="SVGID_36_">
		<use xlink:href="#SVGID_35_"  overflow="visible"/>
	</clipPath>
	<path clip-path="url(#SVGID_36_)" fill="#FCF8F5" d="M89.354,128.918c0,34.137-27.673,61.809-61.809,61.809
		c-34.136,0-61.809-27.672-61.809-61.809c0-34.136,27.673-61.809,61.809-61.809C61.681,67.109,89.354,94.782,89.354,128.918"/>
</g>
<g>
	<defs>
		<rect id="SVGID_37_" x="-81.635" width="1763.273" height="267.699"/>
	</defs>
	<clipPath id="SVGID_38_">
		<use xlink:href="#SVGID_37_"  overflow="visible"/>
	</clipPath>
	<path clip-path="url(#SVGID_38_)" fill="#FCF8F5" d="M348.916,112.618c0,28.062-22.748,50.809-50.809,50.809
		s-50.809-22.748-50.809-50.809s22.748-50.809,50.809-50.809C326.168,61.81,348.916,84.557,348.916,112.618"/>
</g>
<g>
	<defs>
		<rect id="SVGID_39_" x="-81.635" width="1763.273" height="267.699"/>
	</defs>
	<clipPath id="SVGID_40_">
		<use xlink:href="#SVGID_39_"  overflow="visible"/>
	</clipPath>
	<path clip-path="url(#SVGID_40_)" fill="#FCF8F5" d="M475.916,161.241c0,28.061-22.748,50.809-50.809,50.809
		c-28.062,0-50.81-22.748-50.81-50.809c0-28.061,22.748-50.809,50.81-50.809C453.168,110.433,475.916,133.181,475.916,161.241"/>
</g>
<g>
	<defs>
		<rect id="SVGID_41_" x="-81.635" width="1763.273" height="267.699"/>
	</defs>
	<clipPath id="SVGID_42_">
		<use xlink:href="#SVGID_41_"  overflow="visible"/>
	</clipPath>
	<path clip-path="url(#SVGID_42_)" fill="#FCF8F5" d="M1157.916,205.889c0,28.062-22.748,50.811-50.809,50.811
		c-28.062,0-50.811-22.748-50.811-50.811c0-28.062,22.748-50.809,50.811-50.809C1135.168,155.08,1157.916,177.828,1157.916,205.889"
		/>
</g>
<g>
	<defs>
		<rect id="SVGID_43_" x="-81.635" width="1763.273" height="267.699"/>
	</defs>
	<clipPath id="SVGID_44_">
		<use xlink:href="#SVGID_43_"  overflow="visible"/>
	</clipPath>
	<path clip-path="url(#SVGID_44_)" fill="#FCF8F5" d="M1299.25,110.433c0,28.061-22.748,50.809-50.811,50.809
		c-28.061,0-50.809-22.748-50.809-50.809s22.748-50.809,50.809-50.809C1276.502,59.624,1299.25,82.372,1299.25,110.433"/>
</g>
<g>
	<defs>
		<rect id="SVGID_45_" x="-81.635" width="1763.273" height="267.699"/>
	</defs>
	<clipPath id="SVGID_46_">
		<use xlink:href="#SVGID_45_"  overflow="visible"/>
	</clipPath>
	<path clip-path="url(#SVGID_46_)" fill="#FCF8F5" d="M1461.916,85.604c0,28.061-22.748,50.809-50.809,50.809
		c-28.062,0-50.811-22.748-50.811-50.809s22.748-50.809,50.811-50.809C1439.168,34.795,1461.916,57.543,1461.916,85.604"/>
</g>
<g>
	<defs>
		<rect id="SVGID_47_" x="-81.635" width="1763.273" height="267.699"/>
	</defs>
	<clipPath id="SVGID_48_">
		<use xlink:href="#SVGID_47_"  overflow="visible"/>
	</clipPath>
	<path clip-path="url(#SVGID_48_)" fill="#FCF8F5" d="M1303.62,166.375c0,28.062-22.748,50.811-50.81,50.811
		s-50.81-22.748-50.81-50.811c0-28.06,22.748-50.808,50.81-50.808C1280.872,115.566,1303.62,138.314,1303.62,166.375"/>
</g>
<g>
	<defs>
		<rect id="SVGID_49_" x="-81.635" width="1763.273" height="267.699"/>
	</defs>
	<clipPath id="SVGID_50_">
		<use xlink:href="#SVGID_49_"  overflow="visible"/>
	</clipPath>
	<path clip-path="url(#SVGID_50_)" fill="#FCF8F5" d="M1461.916,166.375c0,28.062-22.748,50.811-50.809,50.811
		c-28.062,0-50.811-22.748-50.811-50.811c0-28.06,22.748-50.808,50.811-50.808C1439.168,115.566,1461.916,138.314,1461.916,166.375"
		/>
</g>
<g>
	<defs>
		<rect id="SVGID_51_" x="-81.635" width="1763.273" height="267.699"/>
	</defs>
	<clipPath id="SVGID_52_">
		<use xlink:href="#SVGID_51_"  overflow="visible"/>
	</clipPath>
	<path clip-path="url(#SVGID_52_)" fill="#FCF8F5" d="M1610.583,54.566c0,28.061-22.748,50.809-50.81,50.809
		s-50.81-22.748-50.81-50.809s22.748-50.809,50.81-50.809S1610.583,26.505,1610.583,54.566"/>
</g>
<g>
	<defs>
		<rect id="SVGID_53_" x="-81.635" width="1763.273" height="267.699"/>
	</defs>
	<clipPath id="SVGID_54_">
		<use xlink:href="#SVGID_53_"  overflow="visible"/>
	</clipPath>
	<path clip-path="url(#SVGID_54_)" fill="#FCF8F5" d="M440.984,112.618c0,15.448-12.523,27.971-27.972,27.971
		s-27.972-12.522-27.972-27.971c0-15.448,12.523-27.971,27.972-27.971S440.984,97.17,440.984,112.618"/>
</g>
<g>
	<defs>
		<rect id="SVGID_55_" x="-81.635" width="1763.273" height="267.699"/>
	</defs>
	<clipPath id="SVGID_56_">
		<use xlink:href="#SVGID_55_"  overflow="visible"/>
	</clipPath>
	<path clip-path="url(#SVGID_56_)" fill="#FCF8F5" d="M348.659,177.384c0,31.834-25.805,57.64-57.638,57.64
		s-57.638-25.806-57.638-57.64c0-31.833,25.805-57.637,57.638-57.637S348.659,145.552,348.659,177.384"/>
</g>
<g>
	<defs>
		<rect id="SVGID_57_" x="-81.635" width="1763.273" height="267.699"/>
	</defs>
	<clipPath id="SVGID_58_">
		<use xlink:href="#SVGID_57_"  overflow="visible"/>
	</clipPath>
	<path clip-path="url(#SVGID_58_)" fill="#FCF8F5" d="M531.859,140.59c0,15.448-12.523,27.971-27.972,27.971
		s-27.972-12.522-27.972-27.971c0-15.448,12.523-27.971,27.972-27.971S531.859,125.142,531.859,140.59"/>
</g>
<g>
	<defs>
		<rect id="SVGID_59_" x="-81.635" width="1763.273" height="267.699"/>
	</defs>
	<clipPath id="SVGID_60_">
		<use xlink:href="#SVGID_59_"  overflow="visible"/>
	</clipPath>
	<path clip-path="url(#SVGID_60_)" fill="#FCF8F5" d="M171.526,85.604c0,15.448-12.523,27.971-27.971,27.971
		c-15.449,0-27.972-12.523-27.972-27.971s12.523-27.971,27.972-27.971C159.003,57.633,171.526,70.156,171.526,85.604"/>
</g>
<g>
	<defs>
		<rect id="SVGID_61_" x="-81.635" width="1763.273" height="267.699"/>
	</defs>
	<clipPath id="SVGID_62_">
		<use xlink:href="#SVGID_61_"  overflow="visible"/>
	</clipPath>
	<path clip-path="url(#SVGID_62_)" fill="#FCF8F5" d="M125.192,90.938c0,20.235-16.403,36.638-36.638,36.638
		c-20.235,0-36.638-16.403-36.638-36.638S68.319,54.3,88.554,54.3C108.79,54.3,125.192,70.703,125.192,90.938"/>
</g>
<g>
	<defs>
		<rect id="SVGID_63_" x="-81.635" width="1763.273" height="267.699"/>
	</defs>
	<clipPath id="SVGID_64_">
		<use xlink:href="#SVGID_63_"  overflow="visible"/>
	</clipPath>
	<path clip-path="url(#SVGID_64_)" fill="#FCF8F5" d="M152.221,127.576c0,20.235-16.403,36.639-36.638,36.639
		s-36.638-16.404-36.638-36.639c0-20.235,16.403-36.638,36.638-36.638S152.221,107.341,152.221,127.576"/>
</g>
<g>
	<defs>
		<rect id="SVGID_65_" x="-81.635" width="1763.273" height="267.699"/>
	</defs>
	<clipPath id="SVGID_66_">
		<use xlink:href="#SVGID_65_"  overflow="visible"/>
	</clipPath>
	<path clip-path="url(#SVGID_66_)" fill="#FCF8F5" d="M39.012,168.562c0,20.233-16.403,36.637-36.638,36.637
		s-36.638-16.402-36.638-36.637c0-20.236,16.403-36.64,36.638-36.64S39.012,148.326,39.012,168.562"/>
</g>
<g>
	<defs>
		<rect id="SVGID_67_" x="-81.635" width="1763.273" height="267.699"/>
	</defs>
	<clipPath id="SVGID_68_">
		<use xlink:href="#SVGID_67_"  overflow="visible"/>
	</clipPath>
	<path clip-path="url(#SVGID_68_)" fill="#FCF8F5" d="M112.289,171.742c0,20.234-16.403,36.639-36.638,36.639
		c-20.235,0-36.638-16.404-36.638-36.639c0-20.235,16.403-36.638,36.638-36.638C95.886,135.104,112.289,151.507,112.289,171.742"/>
</g>
<g>
	<defs>
		<rect id="SVGID_69_" x="-81.635" width="1763.273" height="267.699"/>
	</defs>
	<clipPath id="SVGID_70_">
		<use xlink:href="#SVGID_69_"  overflow="visible"/>
	</clipPath>
	<path clip-path="url(#SVGID_70_)" fill="#FCF8F5" d="M184.717,180.057c0,24.104-19.54,43.643-43.643,43.643
		c-24.103,0-43.643-19.539-43.643-43.643s19.54-43.644,43.643-43.644C165.177,136.413,184.717,155.953,184.717,180.057"/>
</g>
<g>
	<defs>
		<rect id="SVGID_71_" x="-81.635" width="1763.273" height="267.699"/>
	</defs>
	<clipPath id="SVGID_72_">
		<use xlink:href="#SVGID_71_"  overflow="visible"/>
	</clipPath>
	<path clip-path="url(#SVGID_72_)" fill="#FCF8F5" d="M981.846,171.742c0,9.648-7.822,17.471-17.471,17.471
		c-9.65,0-17.473-7.822-17.473-17.471c0-9.649,7.821-17.471,17.473-17.471C974.023,154.271,981.846,162.093,981.846,171.742"/>
</g>
<g>
	<defs>
		<rect id="SVGID_73_" x="-81.635" width="1763.273" height="267.699"/>
	</defs>
	<clipPath id="SVGID_74_">
		<use xlink:href="#SVGID_73_"  overflow="visible"/>
	</clipPath>
	<path clip-path="url(#SVGID_74_)" fill="#FCF8F5" d="M571.826,168.562c0,9.647-7.822,17.471-17.471,17.471
		c-9.65,0-17.473-7.822-17.473-17.471c0-9.65,7.822-17.473,17.473-17.473C564.004,151.09,571.826,158.912,571.826,168.562"/>
</g>
<g>
	<defs>
		<rect id="SVGID_75_" x="-81.635" width="1763.273" height="267.699"/>
	</defs>
	<clipPath id="SVGID_76_">
		<use xlink:href="#SVGID_75_"  overflow="visible"/>
	</clipPath>
	<path clip-path="url(#SVGID_76_)" fill="#FCF8F5" d="M821.317,158.639c0,9.65-7.822,17.472-17.473,17.472
		c-9.649,0-17.472-7.822-17.472-17.472c0-9.648,7.822-17.471,17.472-17.471C813.495,141.168,821.317,148.99,821.317,158.639"/>
</g>
<g>
	<defs>
		<rect id="SVGID_77_" x="-81.635" width="1763.273" height="267.699"/>
	</defs>
	<clipPath id="SVGID_78_">
		<use xlink:href="#SVGID_77_"  overflow="visible"/>
	</clipPath>
	<path clip-path="url(#SVGID_78_)" fill="#FCF8F5" d="M1135.541,128.918c0,9.648-7.822,17.471-17.471,17.471
		c-9.65,0-17.474-7.822-17.474-17.471s7.822-17.471,17.474-17.471C1127.719,111.447,1135.541,119.269,1135.541,128.918"/>
</g>
<g>
	<defs>
		<rect id="SVGID_79_" x="-81.635" width="1763.273" height="267.699"/>
	</defs>
	<clipPath id="SVGID_80_">
		<use xlink:href="#SVGID_79_"  overflow="visible"/>
	</clipPath>
	<path clip-path="url(#SVGID_80_)" fill="#FCF8F5" d="M202.188,50.442c0,9.649-7.822,17.471-17.471,17.471
		c-9.65,0-17.472-7.822-17.472-17.471s7.822-17.471,17.472-17.471C194.367,32.971,202.188,40.793,202.188,50.442"/>
</g>
<g>
	<defs>
		<rect id="SVGID_81_" x="-81.635" width="1763.273" height="267.699"/>
	</defs>
	<clipPath id="SVGID_82_">
		<use xlink:href="#SVGID_81_"  overflow="visible"/>
	</clipPath>
	<path clip-path="url(#SVGID_82_)" fill="#FCF8F5" d="M1246.013,72.038c0,9.649-7.821,17.471-17.472,17.471
		s-17.473-7.822-17.473-17.471s7.822-17.471,17.473-17.471S1246.013,62.389,1246.013,72.038"/>
</g>
<g>
	<defs>
		<rect id="SVGID_83_" x="-81.635" width="1763.273" height="267.699"/>
	</defs>
	<clipPath id="SVGID_84_">
		<use xlink:href="#SVGID_83_"  overflow="visible"/>
	</clipPath>
	<path clip-path="url(#SVGID_84_)" fill="#FCF8F5" d="M1308.445,61.809c0,15.363-12.454,27.817-27.817,27.817
		s-27.817-12.454-27.817-27.817c0-15.363,12.454-27.817,27.817-27.817S1308.445,46.446,1308.445,61.809"/>
</g>
<rect x="-81.635" fill="none" width="1763.273" height="267.699"/>
<path fill="#FCF8F5" d="M41.983,61.809c0,34.136-27.673,61.809-61.809,61.809c-34.136,0-61.809-27.673-61.809-61.809
	C-81.635,27.673-53.961,0-19.826,0C14.311,0,41.983,27.673,41.983,61.809"/>
<g>
	<defs>
		<rect id="SVGID_85_" x="-81.635" width="1763.273" height="267.699"/>
	</defs>
	<clipPath id="SVGID_86_">
		<use xlink:href="#SVGID_85_"  overflow="visible"/>
	</clipPath>
	<path clip-path="url(#SVGID_86_)" fill="#FCF8F5" d="M1129.297,158.639c0,9.65-7.822,17.472-17.471,17.472
		c-9.65,0-17.473-7.822-17.473-17.472c0-9.648,7.821-17.471,17.473-17.471C1121.475,141.168,1129.297,148.99,1129.297,158.639"/>
</g>
<rect y="183.365" fill="#FCF8F5" width="1600" height="229.41"/>
<g>
	<g>
		<defs>
			<rect id="SVGID_87_" x="948.613" y="116.841" width="32" height="19.971"/>
		</defs>
		<clipPath id="SVGID_88_">
			<use xlink:href="#SVGID_87_"  overflow="visible"/>
		</clipPath>
		<path clip-path="url(#SVGID_88_)" fill="#FFFFFF" d="M956.479,130.502c0,0,2.105-14.313,11.813-13.639
			c9.987,0.694,4.412,11.599,4.412,11.599s1.243-2.887,5.751-1.523c2.363,0.717,3.734,5.625-1.043,8.112
			c-4.778,2.486-21.856,2.201-25.67,0c-2.996-1.727-3.818-5.114-2.562-6.94c1.256-1.825,3.355-3.056,6.256-2.127
			C956.65,126.375,956.479,130.502,956.479,130.502"/>
	</g>
</g>
</svg>
