<?xml version="1.0" encoding="utf-8"?>
<!-- Generator: Adobe Illustrator 16.0.0, SVG Export Plug-In . SVG Version: 6.00 Build 0)  -->
<!DOCTYPE svg PUBLIC "-//W3C//DTD SVG 1.1//EN" "http://www.w3.org/Graphics/SVG/1.1/DTD/svg11.dtd">
<svg version="1.1" id="Calque_1" xmlns="http://www.w3.org/2000/svg" xmlns:xlink="http://www.w3.org/1999/xlink" x="0px" y="0px"
	 width="1600px" height="364px" viewBox="0 0 1600 364" enable-background="new 0 0 1600 364" xml:space="preserve">
<g>
	<defs>
		<rect id="SVGID_1_" x="-87.345" width="1774.686" height="331.217"/>
	</defs>
	<clipPath id="SVGID_2_">
		<use xlink:href="#SVGID_1_"  overflow="visible"/>
	</clipPath>
	<path clip-path="url(#SVGID_2_)" fill="#EDEDED" d="M640.357,228.938c0,29.685-24.065,53.75-53.75,53.75s-53.75-24.065-53.75-53.75
		c0-29.686,24.065-53.75,53.75-53.75S640.357,199.253,640.357,228.938"/>
	<path clip-path="url(#SVGID_2_)" fill="#EDEDED" d="M688.115,259.893c0,29.686-24.065,53.75-53.75,53.75
		c-29.685,0-53.75-24.064-53.75-53.75c0-29.685,24.065-53.75,53.75-53.75C664.05,206.143,688.115,230.208,688.115,259.893"/>
	<path clip-path="url(#SVGID_2_)" fill="#EDEDED" d="M1119.068,230.217c0,29.685-24.065,53.75-53.75,53.75
		c-29.686,0-53.75-24.065-53.75-53.75s24.064-53.75,53.75-53.75C1095.003,176.467,1119.068,200.532,1119.068,230.217"/>
	<path clip-path="url(#SVGID_2_)" fill="#EDEDED" d="M549.482,202.631c0,29.686-24.065,53.75-53.75,53.75s-53.75-24.064-53.75-53.75
		c0-29.685,24.065-53.75,53.75-53.75S549.482,172.946,549.482,202.631"/>
	<path clip-path="url(#SVGID_2_)" fill="#EDEDED" d="M800.41,271.188c0,29.685-24.065,53.75-53.75,53.75
		c-29.685,0-53.75-24.065-53.75-53.75c0-29.686,24.065-53.75,53.75-53.75C776.345,217.438,800.41,241.503,800.41,271.188"/>
	<path clip-path="url(#SVGID_2_)" fill="#EDEDED" d="M918.037,246.545c0,29.686-24.065,53.75-53.75,53.75
		c-29.686,0-53.75-24.064-53.75-53.75c0-29.685,24.064-53.75,53.75-53.75C893.972,192.795,918.037,216.86,918.037,246.545"/>
	<path clip-path="url(#SVGID_2_)" fill="#EDEDED" d="M1190.289,191.103c0,29.685-24.064,53.75-53.75,53.75
		c-29.685,0-53.75-24.065-53.75-53.75c0-29.685,24.065-53.75,53.75-53.75C1166.225,137.353,1190.289,161.417,1190.289,191.103"/>
	<path clip-path="url(#SVGID_2_)" fill="#EDEDED" d="M462.691,182.261c0,41.479-33.625,75.104-75.103,75.104
		s-75.102-33.625-75.102-75.104c0-41.478,33.624-75.103,75.102-75.103S462.691,140.783,462.691,182.261"/>
	<path clip-path="url(#SVGID_2_)" fill="#EDEDED" d="M720.487,244.565c0,16.799-13.618,30.417-30.417,30.417
		c-16.798,0-30.416-13.618-30.416-30.417c0-16.8,13.618-30.417,30.416-30.417C706.869,214.148,720.487,227.766,720.487,244.565"/>
	<path clip-path="url(#SVGID_2_)" fill="#EDEDED" d="M960.315,263.659c0,16.8-13.618,30.417-30.417,30.417
		c-16.798,0-30.416-13.617-30.416-30.417c0-16.799,13.618-30.417,30.416-30.417C946.697,233.242,960.315,246.86,960.315,263.659"/>
	<path clip-path="url(#SVGID_2_)" fill="#EDEDED" d="M1220.706,172.631c0,16.799-13.618,30.417-30.417,30.417
		c-16.798,0-30.416-13.618-30.416-30.417s13.618-30.417,30.416-30.417C1207.088,142.214,1220.706,155.832,1220.706,172.631"/>
	<path clip-path="url(#SVGID_2_)" fill="#EDEDED" d="M486.939,163.188c0,16.799-13.618,30.417-30.417,30.417
		c-16.798,0-30.416-13.618-30.416-30.417c0-16.799,13.618-30.417,30.416-30.417C473.321,132.771,486.939,146.389,486.939,163.188"/>
	<path clip-path="url(#SVGID_2_)" fill="#EDEDED" d="M1344.69,167.188c0,41.478-33.625,75.103-75.103,75.103
		c-41.479,0-75.103-33.625-75.103-75.103c0-41.479,33.624-75.104,75.103-75.104C1311.065,92.085,1344.69,125.71,1344.69,167.188"/>
	<path clip-path="url(#SVGID_2_)" fill="#EDEDED" d="M765.732,212.417c0,16.799-13.618,30.417-30.417,30.417
		c-16.798,0-30.416-13.618-30.416-30.417S718.517,182,735.315,182C752.114,182,765.732,195.618,765.732,212.417"/>
	<path clip-path="url(#SVGID_2_)" fill="#EDEDED" d="M874.575,197.587c0,12.681-10.279,22.961-22.961,22.961
		c-12.681,0-22.961-10.28-22.961-22.961c0-12.682,10.28-22.961,22.961-22.961C864.296,174.626,874.575,184.905,874.575,197.587"/>
	<path clip-path="url(#SVGID_2_)" fill="#EDEDED" d="M344.691,151.659c0,55.403-44.913,100.316-100.316,100.316
		c-55.403,0-100.316-44.913-100.316-100.316S188.972,51.343,244.375,51.343C299.778,51.343,344.691,96.256,344.691,151.659"/>
	<path clip-path="url(#SVGID_2_)" fill="#EDEDED" d="M1496.162,164.91c0,55.403-44.913,100.316-100.316,100.316
		S1295.53,220.312,1295.53,164.91s44.912-100.316,100.315-100.316S1496.162,109.507,1496.162,164.91"/>
	<path clip-path="url(#SVGID_2_)" fill="#EDEDED" d="M235.384,167.188c0,55.402-44.913,100.315-100.316,100.315
		c-55.403,0-100.316-44.913-100.316-100.315c0-55.403,44.913-100.316,100.316-100.316
		C190.471,66.872,235.384,111.785,235.384,167.188"/>
	<path clip-path="url(#SVGID_2_)" fill="#EDEDED" d="M113.287,100.315c0,55.403-44.913,100.315-100.316,100.315
		c-55.403,0-100.316-44.913-100.316-100.315c0-55.403,44.913-100.316,100.316-100.316C68.374-0.001,113.287,44.912,113.287,100.315"
		/>
	<path clip-path="url(#SVGID_2_)" fill="#EDEDED" d="M1598.987,123.109c0,38.254-31.011,69.266-69.265,69.266
		c-38.255,0-69.267-31.012-69.267-69.266s31.012-69.265,69.267-69.265C1567.977,53.844,1598.987,84.855,1598.987,123.109"/>
	<path clip-path="url(#SVGID_2_)" fill="#EDEDED" d="M1687.341,92.085c0,38.254-31.012,69.266-69.267,69.266
		c-38.254,0-69.265-31.012-69.265-69.266s31.011-69.266,69.265-69.266C1656.329,22.819,1687.341,53.832,1687.341,92.085"/>
	<path clip-path="url(#SVGID_2_)" fill="#EDEDED" d="M855.373,277.467c0,29.685-24.065,53.75-53.75,53.75
		c-29.686,0-53.75-24.065-53.75-53.75s24.065-53.75,53.75-53.75C831.308,223.717,855.373,247.782,855.373,277.467"/>
	<path clip-path="url(#SVGID_2_)" fill="#EDEDED" d="M1042.787,270.5c0,29.685-24.065,53.75-53.75,53.75
		c-29.686,0-53.75-24.065-53.75-53.75c0-29.686,24.064-53.75,53.75-53.75C1018.722,216.75,1042.787,240.814,1042.787,270.5"/>
</g>
<rect y="246.195" fill="#EDEDED" width="1600" height="117.805"/>
<rect y="190.698" fill="#EDEDED" width="542.941" height="83.996"/>
<rect x="1057.06" y="190.698" fill="#EDEDED" width="542.941" height="83.996"/>
<rect x="1243.395" y="136.701" fill="#EDEDED" width="542.941" height="137.994"/>
</svg>
